<?xml version="1.0" standalone="no"?>
<!DOCTYPE svg PUBLIC "-//W3C//DTD SVG 20010904//EN"
 "http://www.w3.org/TR/2001/REC-SVG-20010904/DTD/svg10.dtd">
<svg version="1.0" xmlns="http://www.w3.org/2000/svg"
 width="640.000000pt" height="640.000000pt" viewBox="0 0 640.000000 640.000000"
 preserveAspectRatio="xMidYMid meet">
<metadata>
Created by potrace 1.11, written by Peter Selinger 2001-2013
</metadata>
<g transform="translate(0.000000,640.000000) scale(0.100000,-0.100000)"
fill="#000000" stroke="none">
<path d="M0 3200 l0 -3200 3200 0 3200 0 0 3200 0 3200 -3200 0 -3200 0 0
-3200z m2220 1340 c0 -116 -1 -120 -22 -125 -13 -3 -90 -21 -172 -40 -81 -18
-149 -35 -151 -37 -2 -3 412 -1763 421 -1788 3 -8 153 456 333 1033 181 576
330 1049 332 1052 7 6 371 27 376 21 3 -3 151 -492 328 -1088 191 -639 325
-1074 328 -1062 3 10 83 307 177 659 94 352 203 758 241 903 39 145 68 266 65
269 -3 3 -74 21 -158 39 -84 19 -163 36 -175 39 -22 5 -23 10 -23 114 l0 109
270 6 c149 3 392 9 540 12 l270 6 0 -120 0 -121 -37 -10 c-21 -5 -91 -23 -156
-40 -65 -16 -120 -31 -122 -33 -1 -1 -152 -529 -334 -1173 -183 -643 -341
-1200 -352 -1237 l-20 -68 -219 0 c-200 0 -219 2 -224 18 -3 9 -136 517 -296
1127 -160 611 -292 1114 -293 1119 -2 5 -31 -94 -66 -220 -49 -179 -442 -1516
-577 -1962 l-25 -82 -199 0 -199 0 -11 38 c-5 20 -155 575 -331 1232 -177 657
-325 1199 -329 1203 -6 6 -291 87 -307 87 -2 0 -3 50 -3 110 l0 110 103 1 c56
1 246 5 422 8 176 4 382 8 458 9 l137 2 0 -120z"/>
</g>
</svg>
